<svg xmlns="http://www.w3.org/2000/svg" xmlns:xlink="http://www.w3.org/1999/xlink" width="240" height="240" viewBox="0 0 240 240" fill="none" class="kawaii"><path fill="#add2ff" d="M199.986 85.631c-.002-9.147-8.202-16.633-18.227-16.631l-123.536.004C48.2 69.004 40 76.49 40 85.637v67.402l.044-.007c.323 2.659 2.835 16.71 19.816 16.71h30.48l-.084 18.618s.069 1.555.417 1.998c.348.444 1.225 1.523 3.203 1.623 1.978.1 2.01-.228 2.36-.267.35-.038 5.519-3.611 5.519-3.611l25.756-18.361s51.382.524 54.821 0c6.621-1.009 17.654-3.025 17.654-17.142V85.632Z"></path><path fill="#121212" d="M182.364 169.191c6.608-1.003 17.622-3.009 17.622-17.048V85.54c-.002-9.097-8.188-16.542-18.195-16.54h-8.341c9.958.052 18.084 7.476 18.086 16.54v66.603c0 14.039-11.014 16.045-17.622 17.048-2.012.305-12.396.424-26.397.443 18.144.02 32.448-.079 34.847-.443Z" opacity="0.07"></path><g id="kawaii-face" transform="translate(91.61 108.57) scale(0.8601515151515152)"><defs><path d="M1.45656876,3.14684877 C1.45656876,3.14684877 1.45656876,3.14684877 1.45656876,3.14684877 L0,3.14685315 C0,2.31818182 0.346033696,1.50734266 0.949429952,0.922027972 C1.55390756,0.335664336 2.38979521,0 3.2440659,0 L25.9525272,0 C26.8067979,0 27.6416041,0.335664336 28.2460818,0.922027972 C28.8505594,1.50734266 29.1965931,2.31818182 29.1965931,3.14685315 C29.1890236,5.85734266 28.240675,8.44825175 26.7127199,10.6814685 C25.1771954,12.9104895 23.0317865,14.8122378 20.4040931,16.0227273 C18.6544603,16.8251748 16.6809868,17.3087413 14.5982965,17.3076923 C11.4666916,17.3076923 8.61299495,16.2241259 6.33025392,14.5951049 C4.0399434,12.9587413 2.264358,10.779021 1.16245695,8.33811189 C0.431460764,6.70909091 0.0010813553,4.95314685 0,3.14685315 L1.45656896,3.14685315 Z" id="kawaii-face__path-1"></path></defs><g id="kawaii-face__mouth" transform="translate(18.000000, 16.000000)"><g id="kawaii-face__mouth__joy" transform="translate(0.000000, 1.000000)"><mask id="kawaii-face__mask-2-undefined" fill="white"><use xlink:href="#kawaii-face__path-1"></use></mask><use id="Combined-Shape" fill="#000000" xlink:href="#kawaii-face__path-1"></use><path d="M9.59865983,9.95467851 C9.59865983,9.95467851 9.59865983,9.95467851 9.59865983,9.95467851 L9,9.95467851 C9,9.66740582 9.14222222,9.38631493 9.39022222,9.18340586 C9.63866667,8.98013316 10.3333333,8 15,8 C19.6666667,8 20.3608889,8.98013316 20.6093333,9.18340586 C20.8577778,9.38631493 21,9.66740582 21,9.95467851 C20.9968889,10.8943148 20.6071111,11.7924965 19.9791111,12.5666783 C19.348,13.3394055 18.4662222,13.9986781 17.3862222,14.4183144 C16.6671111,14.6964962 15.856,14.8641326 15,14.8637689 C13.7128889,14.8637689 12.54,14.4881326 11.6017778,13.9234054 C10.6604444,13.3561327 9.93066667,12.6004964 9.47777778,11.7543147 C9.17733333,11.1895875 9.00044444,10.5808603 9,9.95467851 L9.59865983,9.95467851 Z" id="kawaii-face__tongue" fill="#E74144" mask="url(#kawaii-face__mask-2-undefined" transform="translate(15.000000, 11.431885) scale(1, -1)
            translate(-15.000000, -11.431885)"></path></g></g><g id="kawaii-face__blush" transform="translate(0.000000, 15.000000)" fill="#000000" opacity="0.2"><circle cx="3" cy="3" r="3"></circle><circle cx="63" cy="3" r="3"></circle></g><g id="kawaii-face__eyes" transform="translate(2.000000, 0.000000)" fill="#000000"><g id="kawaii-face__eyes__arc" transform="translate(1.000000, 0.000000)"><path d="M11.3298651,9.72876106 C9.83321993,9.72876106 8.62018766,8.55758439 8.62018766,7.11258087 C8.62018766,6.27104292 7.91115541,5.58647579 7.03954249,5.58647579 C6.16883282,5.58647579 5.45889734,6.27104292 5.45889734,7.11258087 C5.45889734,8.55758439 4.2467683,9.72876106 2.74921991,9.72876106 C1.25257476,9.72876106 0.0395424927,8.55758439 0.0395424927,7.11258087 C0.0395424927,3.38626826 3.18005862,0.354115435 7.03954249,0.354115435 C10.8999296,0.354115435 14.0395425,3.38626826 14.0395425,7.11258087 C14.0395425,8.55758439 12.8274135,9.72876106 11.3298651,9.72876106"></path><path d="M57.3298651,9.72876106 C55.8332199,9.72876106 54.6201877,8.55758439 54.6201877,7.11258087 C54.6201877,6.27104292 53.9111554,5.58647579 53.0395425,5.58647579 C52.1688328,5.58647579 51.4588973,6.27104292 51.4588973,7.11258087 C51.4588973,8.55758439 50.2467683,9.72876106 48.7492199,9.72876106 C47.2525748,9.72876106 46.0395425,8.55758439 46.0395425,7.11258087 C46.0395425,3.38626826 49.1800586,0.354115435 53.0395425,0.354115435 C56.8999296,0.354115435 60.0395425,3.38626826 60.0395425,7.11258087 C60.0395425,8.55758439 58.8274135,9.72876106 57.3298651,9.72876106"></path></g></g></g></svg>
